<svg xmlns="http://www.w3.org/2000/svg" xmlns:xlink="http://www.w3.org/1999/xlink" viewBox="0 0 68 60" version="1.1" x="0px" y="0px"><title>logs</title><desc>Created with Sketch.</desc><g stroke="none" stroke-width="1" fill="none" fill-rule="evenodd"><g transform="translate(-176.000000, -426.000000)" fill="#000000" fill-rule="nonzero"><path d="M224,474 L184,474 C179.254785,474 176,468.032894 176,461 C176,453.967106 179.254785,448 184,448 L184.14028,448 C182.782794,445.641726 182,442.449027 182,439 C182,431.967106 185.254785,426 190,426 L230,426 C234.745215,426 238,431.967106 238,439 C238,442.44989 237.216815,445.643323 235.858701,448.00177 C235.905652,448.000592 235.952752,448 236,448 C240.745215,448 244,453.967106 244,461 C244,468.032894 240.745215,474 236,474 C233.500533,474 231.414585,472.344433 230,469.749587 C228.585415,472.344433 226.499467,474 224,474 L224,474 Z M224,470 C225.882202,470 228,466.11737 228,461 C228,455.88263 225.882202,452 224,452 C222.117798,452 220,455.88263 220,461 C220,466.11737 222.117798,470 224,470 Z M212.605551,456 L216.583132,456 C216.947853,454.511644 217.475065,453.155636 218.14028,452 L184,452 C182.979871,452 181.890535,453.140522 181.106674,455 L189,455 C190.104569,455 191,455.895431 191,457 C191,458.104569 190.104569,459 189,459 L180.110167,459 C180.038657,459.639775 180,460.308619 180,461 C180,466.11737 182.117798,470 184,470 L207.171573,470 L202.171573,465 L195.605551,465 L193.1094,466.664101 C192.780865,466.883124 192.39485,467 192,467 L187,467 C185.895431,467 185,466.104569 185,465 C185,463.895431 185.895431,463 187,463 L191.394449,463 L193.8906,461.335899 C194.219135,461.116876 194.60515,461 195,461 L203,461 C203.530433,461 204.039141,461.210714 204.414214,461.585786 L212.828427,470 L218.14028,470 C216.782794,467.641726 216,464.449027 216,461 C216,460.664057 216.007427,460.330545 216.022087,460 L212,460 C211.60515,460 211.219135,459.883124 210.8906,459.664101 L208.394449,458 L203,458 C201.895431,458 201,457.104569 201,456 C201,454.895431 201.895431,454 203,454 L209,454 C209.39485,454 209.780865,454.116876 210.1094,454.335899 L212.605551,456 Z M236,470 C237.882202,470 240,466.11737 240,461 C240,455.88263 237.882202,452 236,452 C234.117798,452 232,455.88263 232,461 C232,466.11737 234.117798,470 236,470 Z M230,448 C231.882202,448 234,444.11737 234,439 C234,433.88263 231.882202,430 230,430 C228.117798,430 226,433.88263 226,439 C226,444.11737 228.117798,448 230,448 Z M222.285973,435.453614 C222.627374,433.391766 223.264127,431.522085 224.14028,430 L190,430 C188.372093,430 186.567949,432.904376 186.110167,437 L189.08013,437 L191.481487,434.198417 C191.861451,433.755125 192.41615,433.5 193,433.5 L199,433.5 C200.104569,433.5 201,434.395431 201,435.5 C201,436.604569 200.104569,437.5 199,437.5 L193.91987,437.5 L191.518513,440.301583 C191.138549,440.744875 190.58385,441 190,441 L186.110167,441 C186.567949,445.095624 188.372093,448 190,448 L194.171573,448 L200.585786,441.585786 C200.960859,441.210714 201.469567,441 202,441 L213,441 C214.104569,441 215,441.895431 215,443 C215,444.104569 214.104569,445 213,445 L202.828427,445 L199.828427,448 L224.14028,448 C222.926733,445.891782 222.172466,443.116712 222.026155,440.087804 L217.394449,437 L213,437 C211.895431,437 211,436.104569 211,435 C211,433.895431 211.895431,433 213,433 L218,433 C218.39485,433 218.780865,433.116876 219.1094,433.335899 L222.285973,435.453614 Z"/></g></g><text x="0" y="68" fill="#000000" font-size="5px" font-weight="bold" font-family="'Helvetica Neue', Helvetica, Arial-Unicode, Arial, Sans-serif">from the Noun Project</text></svg>